<svg id="Icon_awesome-users-cog" data-name="Icon awesome-users-cog" xmlns="http://www.w3.org/2000/svg" width="17.448" height="12.212" viewBox="0 0 17.448 12.212">
  <path id="Icon_awesome-users-cog-2" data-name="Icon awesome-users-cog" d="M16.645,10.687a3.2,3.2,0,0,0,0-1.161l.7-.406a.2.2,0,0,0,.09-.232,4.092,4.092,0,0,0-.905-1.565.2.2,0,0,0-.245-.038l-.7.406a3.2,3.2,0,0,0-1.006-.581V6.3a.2.2,0,0,0-.155-.194,4.114,4.114,0,0,0-1.8,0,.2.2,0,0,0-.155.194V7.11a3.2,3.2,0,0,0-1.006.581l-.7-.406a.2.2,0,0,0-.245.038A4.092,4.092,0,0,0,9.6,8.888a.2.2,0,0,0,.09.232l.7.406a3.2,3.2,0,0,0,0,1.161l-.7.406a.2.2,0,0,0-.09.232,4.112,4.112,0,0,0,.905,1.565.2.2,0,0,0,.245.038l.7-.406a3.2,3.2,0,0,0,1.006.581v.812a.2.2,0,0,0,.155.194,4.114,4.114,0,0,0,1.8,0,.2.2,0,0,0,.155-.194V13.1a3.2,3.2,0,0,0,1.006-.581l.7.406a.2.2,0,0,0,.245-.038,4.092,4.092,0,0,0,.905-1.565.2.2,0,0,0-.09-.232l-.7-.406Zm-3.122.742a1.322,1.322,0,1,1,1.322-1.322A1.324,1.324,0,0,1,13.523,11.429ZM2.617,7.489A1.745,1.745,0,1,0,.872,5.744,1.747,1.747,0,0,0,2.617,7.489Zm6.107.872c.052,0,.1-.014.153-.016a5.026,5.026,0,0,1,.99-1.614,1.075,1.075,0,0,1,.788-.344,1.048,1.048,0,0,1,.534.145l.215.125.065-.038a3.018,3.018,0,0,0,.305-1.309A3.052,3.052,0,1,0,8.725,8.362Zm2.868,5.3c-.063-.033-.125-.071-.185-.106a1.347,1.347,0,0,1-.75.267,1.084,1.084,0,0,1-.788-.344,4.972,4.972,0,0,1-1.1-1.9,1.163,1.163,0,0,1,.7-1.371q0-.106,0-.213l-.215-.125a1.111,1.111,0,0,1-.267-.221c-.09.005-.177.016-.267.016A4.3,4.3,0,0,1,6.86,9.234H6.634A3.142,3.142,0,0,0,3.49,12.375v.785A1.309,1.309,0,0,0,4.8,14.469h6.963a1.05,1.05,0,0,1-.169-.553ZM4.72,8.869a1.74,1.74,0,0,0-1.23-.507H1.745A1.747,1.747,0,0,0,0,10.107v.872a.872.872,0,0,0,.872.872h1.8A4,4,0,0,1,4.72,8.869Z" transform="translate(0 -2.257)" fill="#232e3e"/>
</svg>
