<svg id="Component_330_1" data-name="Component 330 – 1" xmlns="http://www.w3.org/2000/svg" width="15.75" height="18" viewBox="0 0 15.75 18">
  <path id="Path_77" data-name="Path 77" d="M5.344,2.25h5.063V.844a.844.844,0,0,1,1.688,0V2.25H13.5A2.252,2.252,0,0,1,15.75,4.5V15.75A2.252,2.252,0,0,1,13.5,18H2.25A2.252,2.252,0,0,1,0,15.75V4.5A2.252,2.252,0,0,1,2.25,2.25H3.656V.844a.844.844,0,0,1,1.688,0ZM1.688,15.75a.562.562,0,0,0,.563.563H13.5a.562.562,0,0,0,.563-.562v-9H1.688Z" fill="#f8991f"/>
</svg>
